<?xml version="1.0" encoding="UTF-8"?>
<svg id="logomark" xmlns="http://www.w3.org/2000/svg" viewBox="0 0 215 215">
  <defs>
    <style>
      .cls-1 {
        fill: #abb0c0;
      }

      .cls-2 {
        fill: #fff;
      }

      .cls-3 {
        fill: #1e2d45;
      }

      .cls-4 {
        fill: #f1d6c8;
      }

      .cls-5 {
        fill: #858b97;
      }
    </style>
  </defs>
  <g id="logomark_primary_color">
    <circle class="cls-4" cx="107.5" cy="107.5" r="107.5"/>
    <g id="_主扇貝" data-name="主扇貝">
      <g>
        <path d="M171.741,80.46c6.286-5.623,12.9-14.703,9.696-19.182-3.204-4.479-20.427-4.469-26.374-3.269-7.719-7.303-15.718-15.657-36.795-10.422-4.167-4.835-13.609-11.418-17.071-9.87-6.94,2.883-9.769,18.758-9.769,18.758-19.52,5.118-38.671,15.143-43.386,17.859-8.813,4.741-17.955,14.011-14.686,27.711-8.159,7.48-10.083,41.309,14.595,48.246,10.037,14.476,18.711,13.823,29.879,13.625,3.482,8.606,16.667,19.34,35.122,8.009,12.505,2.705,27.688,3.348,39.323-8.47,15.839-.55,35.256-14.457,29.929-37.656,9.694-13.818-8.903-42.453-10.462-45.339Z"/>
        <g>
          <path class="cls-1" d="M179.795,105.706c-12.716-33.691-31.113-51.83-41.382-54.97-11.334-3.49-22.737,1.011-48.91,9.854-27.745,9.375-46.779,17.364-51.828,29.008-4.879,11.251,4.143,25.46,15.157,27.848-.174-1.569.102-3.809.16-4.167.304-1.902,3.817-17.614,21.755-24.437-10.837,6.073-24.445,21.703-16.994,35.83,3.904,4.971,10.555,8.718,21.477,5.909.96-14.545,12.287-32.418,26.595-44.367-9.519,11.145-21.159,26.682-22.803,41.497-.131,1.159-.163,6.432,2.7,10.191,9.082,8.485,26.181,12.054,36.569.482,10.466-12.865,7.999-36.681,6.503-49.11,4.595,16.56,5.348,35.33-2.039,47.766,6.053,6.185,17.196,7.23,27.298-1.023,6.702-15.565,6.563-35.467-7.075-53.763,14.08,16.675,15.474,30.486,11.159,51.959,13.049-3.527,28.364-7.319,21.66-28.508Z"/>
          <g>
            <path class="cls-1" d="M48.32,133.155c-6.201-1.808-16.288-10.063-15.988-20.948-1.454,6.395-3.516,28.383,17.635,35.252-2.204-4.557-2.189-9.891-1.647-14.304Z"/>
            <path class="cls-1" d="M75.474,148.011c-7.555.527-21.48-6.139-23.085-15.003-2.041,2.456-4.622,11.874,1.061,19.142h0c7.394,8.833,14.63,8.992,25.138,8.341-2.427-4.491-3.235-8.74-3.113-12.479Z"/>
            <path class="cls-1" d="M153.05,150.138s0-.003,0-.005c-5.111,5.585-19.152,9.084-31.618,3.313-.205,3.478-4.134,11.661-8.314,14.861,8.142,1.894,23.996,5.366,36.037-6.55,2.747-4.02,3.76-8.083,3.896-11.621Z"/>
            <path class="cls-1" d="M78.126,148.193c-.568,5.765.312,9.94,1.565,13.335,3.294,6.86,14.755,18.086,32.336,7.29,4.512-3.825,5.609-9.832,5.494-14.018-8.318,6.306-32.462,6.034-39.395-6.607Z"/>
            <path class="cls-1" d="M155.867,149.195s0,.002,0,.002c-.067,2.407-.918,6.207-5.21,11.021,14.945-.192,26.164-10.422,28.197-21.007-4.469,6.992-14.818,11.327-22.986,9.984Z"/>
          </g>
        </g>
        <g>
          <path class="cls-5" d="M31.768,124.989c1.036,8.469,5.301,18.281,18.199,22.47-.827-1.711-1.342-3.531-1.634-5.371,0,0,0,0,0,0-10.507-.184-15.459-11.933-16.566-17.098Z"/>
          <path class="cls-5" d="M50.072,143.46c.259,2.875,1.225,5.937,3.378,8.69h0c7.394,8.833,14.63,8.992,25.138,8.341-.667-1.234-1.207-2.449-1.644-3.64,0,0,0,0,0,0-19.134,2.568-24.732-7.897-26.871-13.39Z"/>
          <path class="cls-5" d="M115.302,164.752c.083-.163.167-.327.247-.489-4.305,3.258-8.74,5.962-18.264,5.552-11.55-.917-17.071-6.752-18.789-12.472.069.343.145.676.224,1.004.019.079.038.158.058.236.162.647.343,1.267.537,1.862.024.073.048.147.072.219.098.292.198.581.302.862,3.294,6.86,14.755,18.086,32.336,7.29,1.398-1.185,2.467-2.58,3.275-4.066Z"/>
          <path class="cls-5" d="M149.154,161.758c1.011-1.48,1.786-2.965,2.37-4.428-13.187,12.831-30.679,9.03-34.502,6.568h0c-1.193,1.777-2.534,3.361-3.904,4.41,8.142,1.894,23.996,5.366,36.037-6.55Z"/>
          <path class="cls-5" d="M153.516,156.412c-.721,1.183-1.655,2.454-2.86,3.805,12.206-.157,21.923-7.01,26.184-15.283-4.616,8.71-19.293,11.893-23.324,11.477Z"/>
        </g>
        <path class="cls-3" d="M34.842,105.939c-1.56,2.049-2.051,4.445-2.051,4.445-.397,6.609,8.9,22.143,20.788,20.603.506,8.687,16.851,18.254,24.372,13.968,5.196,12.338,31.783,15.524,42.248,5.398,6.328,5.816,28.808,5.124,33.459-4.166,7.15,3.857,22.778-2.816,25.785-11.026.634-3.087-.268-6.157-.268-6.157-3.236,3.981-14.054,11.955-22.424,9.253-6.276,5.756-20.609,11.449-31.599,2.14-12.655,16.079-42.438,7.45-45.108-6.47-8.331,2.237-23.988,1.486-27.484-13.001-2.585-1.083-11.546-2.589-17.718-14.988Z"/>
        <g>
          <path class="cls-2" d="M95.346,55.037c4.494-1.698,13.817-4.617,19.326-6.212-3.194-3.299-10.209-8.349-12.19-7.914-2.848.787-6.145,9.474-7.136,14.126Z"/>
          <path class="cls-2" d="M157.806,61.012c6.237,6.833,11.17,14.918,12.178,16.416,4.329-3.652,10.321-12.918,8.476-14.276-3.579-2.635-16.228-2.76-20.654-2.14Z"/>
          <path class="cls-2" d="M87.563,61.249c-.34.116-.679.232-1.016.347-.168.057-.335.115-.502.172-.337.116-.673.231-1.008.347-.152.052-.304.105-.455.157-.472.163-.943.326-1.409.489-.016.006-.032.011-.048.017-.457.159-.911.318-1.362.477-.148.052-.294.104-.442.156-.323.114-.646.228-.966.342-.158.056-.315.112-.473.168-.324.116-.647.231-.968.346-.138.05-.277.099-.414.149-.903.325-1.795.65-2.674.974-.135.05-.268.099-.402.149-.308.114-.615.228-.92.342-.149.055-.297.111-.445.166-.306.115-.61.229-.913.344-.129.049-.258.097-.387.146-.426.162-.85.324-1.27.485,0,0-.002,0-.002,0-.417.161-.831.322-1.242.482-.122.048-.243.095-.364.143-.294.116-.587.231-.878.347-.135.054-.27.107-.405.161-.289.115-.575.23-.86.346-.119.048-.239.096-.358.145-.796.323-1.578.646-2.347.97-.11.046-.22.093-.329.139-.277.117-.552.234-.825.351-.123.053-.246.106-.369.159-.272.118-.543.235-.811.353-.106.046-.212.092-.317.139-.738.325-1.463.651-2.173.978-.102.047-.203.094-.305.141-.255.118-.508.236-.76.355-.113.053-.226.106-.338.16-.25.119-.499.238-.745.357-.097.047-.195.094-.292.141-.677.329-1.34.66-1.989.992-.092.047-.183.095-.275.142-.233.12-.465.241-.694.361-.102.054-.204.108-.306.162-.229.122-.456.243-.681.365-.087.047-.174.094-.26.141-.614.335-1.213.673-1.797,1.012-.084.049-.167.098-.251.147-.209.123-.417.245-.622.369-.091.055-.182.11-.273.165-.206.125-.41.251-.613.376-.076.047-.154.095-.229.142-.276.173-.548.346-.816.52,0,0,0,0,0,0,11.039-5.203,48.674-19.048,67.515-4.989,18.841,14.059,43.52-2.38,30.564-17.178-3.218-2.499-6.16-4.124-8.63-4.879-11.334-3.49-22.737,1.011-48.91,9.854-.492.166-.98.332-1.466.497-.158.054-.315.107-.473.161Z"/>
        </g>
        <g>
          <path class="cls-5" d="M92.62,100.009c-11.034,13.89-13.898,24.292-20.665,25.517-5.397.977-11.864,1.64-16.076-6.316.314,1.83.921,3.659,1.872,5.463,3.904,4.971,10.555,8.718,21.477,5.909.635-9.627,5.815-20.712,13.393-30.573Z"/>
          <path class="cls-5" d="M83.468,132.915c.394,1.659,1.08,3.451,2.252,4.989,9.082,8.485,26.181,12.054,36.569.482,5.869-7.215,7.67-17.872,7.857-28.035-6.895,35.983-41.431,37.727-46.678,22.564Z"/>
          <path class="cls-5" d="M154.811,134.144c.122-.315.243-.63.359-.949.07-.193.137-.387.205-.581.101-.286.201-.573.297-.862.07-.21.137-.422.205-.634.088-.275.175-.552.259-.829.067-.222.132-.445.196-.668.078-.27.153-.541.226-.812.063-.231.124-.463.184-.696.068-.266.133-.533.197-.8.057-.24.115-.48.169-.721.059-.262.114-.527.169-.79.052-.248.105-.495.153-.744.05-.256.094-.514.14-.771.046-.26.095-.518.137-.779.036-.221.066-.445.099-.667.091-.61.172-1.224.242-1.841.019-.172.042-.342.06-.514.033-.324.06-.65.087-.976.017-.197.035-.393.05-.591.024-.326.041-.654.059-.981.011-.197.022-.394.031-.592.014-.333.023-.666.031-1,.004-.192.009-.385.011-.578.004-.342.004-.685.001-1.029-.002-.182-.004-.365-.008-.547-.007-.356-.016-.712-.031-1.069-.007-.165-.015-.33-.024-.496-.019-.376-.039-.753-.067-1.131-.009-.131-.021-.263-.032-.394-.033-.413-.068-.826-.111-1.241-.005-.047-.011-.095-.016-.142-.216-2.019-.553-4.053-1.022-6.095-.004-.017-.007-.035-.011-.052-.108-.466-.225-.933-.346-1.4-.02-.077-.039-.155-.06-.232-.118-.445-.244-.89-.374-1.335-.028-.097-.056-.194-.085-.291-.132-.439-.27-.879-.414-1.318-.032-.098-.065-.196-.097-.294-.149-.446-.304-.891-.466-1.337-.03-.081-.06-.162-.09-.243-.172-.465-.349-.931-.535-1.396-.015-.039-.032-.077-.047-.116-1.049-2.602-2.327-5.201-3.853-7.78,0,0,0,0,0,0,7.417,18.969,5.854,41.892-6.487,48.427-4.495,2.381-10.796,3.84-16.969-.051-.002-.001-.004-.001-.006-.002-.155.281-.31.563-.473.838,6.053,6.185,17.196,7.23,27.298-1.023.199-.463.392-.93.579-1.401.062-.157.121-.316.182-.474Z"/>
          <path class="cls-5" d="M179.795,105.706c-6.03-15.977-13.338-28.454-20.451-37.496,12.344,23.41,19.297,39.996,14.26,51.8-1.934,4.012-4.565,9.355-13.826,11.769-.161.049-.906-.008-1.045.057-.134.725-.449,1.633-.598,2.376,5.418,3.385,30.055-6.354,21.66-28.508Z"/>
          <path class="cls-5" d="M176.815,68.97c-7.709,4.126-15.67-5.437-19.008-7.958,6.237,6.833,11.17,14.918,12.178,16.416,2.278-1.922,5.015-5.398,6.83-8.458Z"/>
          <path class="cls-5" d="M61.81,97.153c-10.802,10.92-18.106,12.887-23.085,8.647,2.936,5.748,8.238,10.375,14.105,11.647-.174-1.569.102-3.809.16-4.167.209-1.307,1.934-9.141,8.82-16.127Z"/>
        </g>
      </g>
    </g>
  </g>
</svg>